<?xml version="1.0" encoding="UTF-8"?>
<svg version="1.1" xmlns="http://www.w3.org/2000/svg" width="1002" height="960">
<path d="M0 0 C1.97384628 2.96076941 2.87491333 5.31176508 3.9609375 8.67822266 C4.53532814 10.44745338 4.53532814 10.44745338 5.12132263 12.25242615 C5.53933878 13.55626528 5.95722724 14.86014536 6.375 16.1640625 C6.81535611 17.52718149 7.25608409 18.89018039 7.69715881 20.25306702 C8.88847851 23.93866024 10.07367714 27.62619567 11.25758743 31.31417465 C12.25324044 34.41323346 13.25240787 37.51115475 14.25146198 40.60911846 C20.96360281 61.42651397 27.58708561 82.27113376 34.14697266 103.13702393 C40.16888222 122.2895928 46.30971339 141.40140145 52.5 160.5 C59.45721894 181.96499408 66.32667233 203.45471681 73.09423828 224.98046875 C79.35267718 244.878238 85.74091401 264.73176434 92.17226028 284.57409286 C98.87844327 305.26579446 105.49324028 325.98354832 112.01275635 346.73501587 C116.57089811 361.23677421 121.1856056 375.71865368 125.87109375 390.1796875 C126.1209371 390.95090879 126.37078045 391.72213009 126.62819481 392.51672173 C129.09320571 400.12404465 131.56232944 407.73001684 134.03926563 415.33346558 C134.95496455 418.14566324 135.86881078 420.95846107 136.78238106 423.77135086 C137.40374435 425.68194754 138.02785475 427.59165014 138.65208435 429.50131226 C141.28887902 437.62061552 143.7075279 445.77801996 146 454 C142.75827449 453.26652271 140.7519767 452.30925004 138.0859375 450.296875 C137.3343335 449.73540771 136.58272949 449.17394043 135.80834961 448.59545898 C135.00534424 447.98645752 134.20233887 447.37745605 133.375 446.75 C131.65553126 445.46406337 129.93546515 444.17892518 128.21484375 442.89453125 C127.34327637 442.24178223 126.47170898 441.5890332 125.57373047 440.91650391 C121.72392741 438.04978469 117.83388268 435.24041781 113.9375 432.4375 C113.19999512 431.90608398 112.46249023 431.37466797 111.70263672 430.82714844 C110.21327823 429.75408239 108.72369559 428.68132738 107.23388672 427.60888672 C102.73476831 424.36853805 98.24175881 421.11972298 93.74755859 417.87255859 C90.012055 415.17401978 86.2751852 412.47742047 82.53515625 409.78515625 C74.02079319 403.65243321 65.54783798 397.46767211 57.10791016 391.23291016 C48.01110983 384.5197136 38.83513272 377.91724891 29.65771484 371.31494141 C27.31280637 369.62755631 24.96889656 367.93879029 22.625 366.25 C21.93656006 365.75556396 21.24812012 365.26112793 20.53881836 364.75170898 C19.85827393 364.26130127 19.17772949 363.77089355 18.4765625 363.265625 C17.44860817 362.55481781 17.44860817 362.55481781 16.39988708 361.82965088 C14 360 14 360 11.85574341 357.75093079 C1.69067537 348.06195731 -10.8530773 349.76328328 -24.109375 349.90234375 C-26.64814401 349.89668483 -29.18690699 349.88706626 -31.72564697 349.87367249 C-37.69675365 349.85164459 -43.66689106 349.86918213 -49.63784432 349.90644604 C-56.44341635 349.94666929 -63.2486134 349.93550296 -70.05425215 349.92032993 C-84.03648298 349.89029201 -98.01797296 349.92378156 -112 350 C-108.90555303 338.48813469 -108.90555303 338.48813469 -107.10913086 332.96435547 C-106.59490067 331.37617256 -106.59490067 331.37617256 -106.07028198 329.75590515 C-105.70548737 328.63762833 -105.34069275 327.5193515 -104.96484375 326.3671875 C-104.36577557 324.51879474 -103.76671172 322.67040057 -103.16781616 320.82195187 C-102.53185055 318.86038254 -101.89474905 316.89918534 -101.25735474 314.93807983 C-98.98464219 307.94413723 -96.72219859 300.94687079 -94.4609375 293.94921875 C-94.23014811 293.23518953 -93.99935871 292.52116032 -93.7615757 291.78549385 C-89.12677143 277.44097126 -84.58270754 263.06853246 -80.0625 248.6875 C-73.42117216 227.56631246 -66.65449171 206.48832009 -59.82794189 185.42651367 C-53.12007202 164.72954538 -46.50497073 144.00611557 -39.98220825 123.24987793 C-35.47995697 108.93042365 -30.92781446 94.62847537 -26.3046875 80.34765625 C-26.06105658 79.59507223 -25.81742565 78.84248821 -25.56641197 78.06709862 C-23.17266393 70.67494912 -20.77459841 63.28421121 -18.37043667 55.89544201 C-17.2653212 52.49838206 -16.16174839 49.10082214 -15.05859375 45.703125 C-14.8462591 45.04964396 -14.63392445 44.39616291 -14.41515541 43.72287941 C-12.02320392 36.35523305 -9.6688588 28.97757451 -7.38330078 21.57617188 C-7.06803672 20.55547419 -7.06803672 20.55547419 -6.74640369 19.51415634 C-5.7438793 16.26356376 -4.74713447 13.01137339 -3.75645447 9.75714111 C-3.40764725 8.61879822 -3.05884003 7.48045532 -2.69946289 6.30761719 C-2.39408096 5.30317566 -2.08869904 4.29873413 -1.77406311 3.26385498 C-1 1 -1 1 0 0 Z " fill="#DC2A34" transform="translate(501,0)"/>
<path d="M0 0 C154.77 0 309.54 0 469 0 C463.37414966 5.62585034 463.37414966 5.62585034 459.98828125 8.09375 C459.2398999 8.64232666 458.49151855 9.19090332 457.72045898 9.75610352 C456.52851929 10.61933228 456.52851929 10.61933228 455.3125 11.5 C454.475979 12.11093506 453.63945801 12.72187012 452.77758789 13.35131836 C450.18881152 15.23943916 447.59520648 17.12072963 445 19 C443.83452637 19.84522217 443.83452637 19.84522217 442.64550781 20.70751953 C436.69661444 25.01963279 430.73407481 29.31270919 424.77050781 33.60449219 C416.22947007 39.75329179 407.71408236 45.93305997 399.25 52.1875 C392.73131921 57.00394216 386.1755172 61.76022935 379.5703125 66.45703125 C368.28762846 74.48203891 357.08734453 82.62071512 345.98364258 90.89160156 C345.26072021 91.4275293 344.53779785 91.96345703 343.79296875 92.515625 C343.04966309 93.07822021 342.30635742 93.64081543 341.54052734 94.22045898 C339 96 339 96 335.74462891 97.82836914 C327.34616431 102.65311438 323.93975033 107.70841031 321.29956055 117.02368164 C320.86628628 118.66159797 320.43310249 120.29953824 320 121.9375 C319.50265139 123.67142744 318.9995922 125.40372494 318.49145508 127.13452148 C317.64330925 130.02629443 316.7994296 132.91880859 315.97163391 135.81648254 C313.32321163 145.06135223 310.44040314 154.22388451 307.51171875 163.3828125 C307.27237736 164.13142359 307.03303596 164.88003468 306.7864418 165.65133095 C305.57408266 169.44093047 304.3594739 173.22980413 303.14379883 177.01834106 C301.01201162 183.66500358 298.89832023 190.31742345 296.78357887 196.96952438 C295.76363016 200.17727377 294.74249821 203.38464604 293.72143555 206.59204102 C293.38758347 207.64085953 293.05373138 208.68967804 292.70976257 209.77027893 C292.47554092 210.50608688 292.24131927 211.24189484 292 212 C288.76984281 210.74448353 286.04021992 209.50466881 283.2421875 207.453125 C282.54383789 206.94499268 281.84548828 206.43686035 281.12597656 205.91333008 C280.3831543 205.36443115 279.64033203 204.81553223 278.875 204.25 C278.09092773 203.67725342 277.30685547 203.10450684 276.49902344 202.5144043 C273.99475676 200.68243231 271.4966645 198.84231626 269 197 C268.18499023 196.39945801 267.36998047 195.79891602 266.53027344 195.18017578 C263.29565902 192.79653763 260.06165086 190.41208835 256.82983398 188.0246582 C251.1158627 183.80752516 245.35779465 179.65830785 239.5703125 175.54296875 C228.33484157 167.55154225 217.19855572 159.42577605 206.10888672 151.23364258 C197.7856412 145.09126792 189.39600805 139.04233081 181 133 C170.99449602 125.79936792 161.02311522 118.55749214 151.10791016 111.23291016 C143.5233116 105.63567826 135.8841167 100.11591373 128.23388672 94.60888672 C123.73476831 91.36853805 119.24175881 88.11972298 114.74755859 84.87255859 C111.012055 82.17401978 107.2751852 79.47742047 103.53515625 76.78515625 C95.02079319 70.65243321 86.54783798 64.46767211 78.10791016 58.23291016 C69.78497251 52.09080366 61.39567785 46.04209317 53 40 C42.14908724 32.19095503 31.33907082 24.33139747 20.58984375 16.3828125 C17.57243 14.15341016 14.54419244 11.940291 11.50390625 9.7421875 C10.80547607 9.23574707 10.1070459 8.72930664 9.38745117 8.20751953 C8.07887358 7.25978106 6.76795623 6.31526191 5.4543457 5.37451172 C1.11153503 2.22307005 1.11153503 2.22307005 0 0 Z " fill="#0757A1" transform="translate(0,372)"/>
<path d="M0 0 C118.14 0 236.28 0 358 0 C352.37414966 5.62585034 352.37414966 5.62585034 348.98828125 8.09375 C347.86583008 8.91649414 347.86583008 8.91649414 346.72070312 9.75585938 C345.92599609 10.33142578 345.13128906 10.90699219 344.3125 11.5 C343.47525391 12.11166016 342.63800781 12.72332031 341.77539062 13.35351562 C335.45905751 17.9614491 329.11786983 22.53538649 322.77270508 27.10351562 C317.32094156 31.03215819 311.90432509 35.0064093 306.5 39 C296.6460488 46.27959514 286.71425404 53.44830513 276.77050781 60.60449219 C268.22947007 66.75329179 259.71408236 72.93305997 251.25 79.1875 C244.73131921 84.00394216 238.1755172 88.76022935 231.5703125 93.45703125 C220.33484157 101.44845775 209.19855572 109.57422395 198.10888672 117.76635742 C189.04893979 124.45240175 179.90963888 131.02736019 170.77050781 137.60449219 C162.31406964 143.6923875 153.88111091 149.80868741 145.5 156 C137.12051542 162.19011119 128.68892637 168.30474309 120.23388672 174.39111328 C116.48640231 177.09012118 112.74338799 179.79531494 109 182.5 C104.51389621 185.74131453 100.02695169 188.98141954 95.53515625 192.21484375 C87.82537027 197.76804624 80.14242369 203.35437205 72.5 209 C62.64592179 216.27942622 52.71425666 223.44830324 42.77050781 230.60449219 C34.31406887 236.69238806 25.88114826 242.80873706 17.5 249 C5.11058404 258.1513021 -7.32710126 267.24360012 -20 276 C-20.66 275.67 -21.32 275.34 -22 275 C-21.79749634 274.38440216 -21.59499268 273.76880432 -21.38635254 273.134552 C-18.75453695 265.13236295 -16.12600233 257.12909844 -13.5 249.125 C-13.17784515 248.14306671 -13.17784515 248.14306671 -12.84918213 247.14129639 C-6.17458703 226.79328974 0.424725 206.42318621 6.90014648 186.01074219 C10.37515936 175.07769225 13.92649232 164.17347599 17.5755806 153.29738617 C18.25040074 151.28389703 18.92304373 149.26969519 19.59481812 147.25518799 C19.81511877 146.59457996 20.03541943 145.93397194 20.26239586 145.25334549 C20.70522076 143.92519196 21.14794089 142.59700349 21.59055519 141.26877975 C22.67499533 138.01840132 23.76603799 134.77052696 24.87182617 131.52734375 C26.09703827 127.9265672 27.30223786 124.31962688 28.50390625 120.7109375 C28.87383194 119.64241547 29.24375763 118.57389343 29.62489319 117.47299194 C29.95436447 116.471763 30.28383575 115.47053406 30.62329102 114.43896484 C30.91478531 113.57717621 31.2062796 112.71538757 31.50660706 111.82748413 C32.59132314 105.61130786 30.8012409 99.77121429 28.90209961 93.87915039 C28.6904718 93.21588242 28.47884399 92.55261444 28.26080322 91.86924744 C27.56466311 89.69317479 26.85857718 87.52047194 26.15234375 85.34765625 C25.65664971 83.80492302 25.16159089 82.26198556 24.66712952 80.71885681 C23.36290248 76.65435104 22.05024553 72.59261726 20.73571777 68.53143311 C19.42889081 64.48934277 18.12976068 60.44478257 16.83007812 56.40039062 C11.17773653 38.81585899 11.17773653 38.81585899 5.46923828 21.24951172 C5.09118546 20.08624863 4.71313263 18.92298553 4.32362366 17.72447205 C3.63283615 15.59933356 2.9375471 13.47565063 2.23680115 11.35377502 C1.93766312 10.43064011 1.63852509 9.50750519 1.33032227 8.55639648 C1.07114517 7.76587387 0.81196808 6.97535126 0.54493713 6.16087341 C0 4 0 4 0 0 Z " fill="#E16D26" transform="translate(644,372)"/>
<path d="M0 0 C13.83961412 40.98049712 26.93720689 82.20230973 39.92120361 123.46054077 C46.23951713 143.5296752 52.68417081 163.55591948 59.17120743 183.5709343 C65.89825862 204.32769062 72.54389501 225.10764896 79.07510376 245.92709351 C83.33315244 259.49985797 87.65044612 273.05022883 92.07406235 286.56981277 C92.81925032 288.84809118 93.56317041 291.1267796 94.30667114 293.40560913 C94.79752757 294.90973514 95.28840275 296.41385504 95.77929688 297.91796875 C96.0208293 298.65809519 96.26236172 299.39822163 96.5112133 300.16077614 C97.9458197 304.55314473 99.39009675 308.94219132 100.84135723 313.32908344 C101.73690235 316.04295529 102.62402475 318.75952736 103.50901222 321.47685814 C104.12241786 323.35084134 104.74659285 325.22128857 105.37101746 327.09162903 C105.73415543 328.2109935 106.0972934 329.33035797 106.47143555 330.48364258 C106.79242722 331.45755447 107.11341888 332.43146637 107.44413757 333.43489075 C108.01693259 336.07813795 107.90498653 337.48468513 107 340 C106.51869629 339.64397705 106.03739258 339.2879541 105.54150391 338.92114258 C95.9932 331.86208082 86.4207172 324.84043246 76.78271484 317.90429688 C71.24316261 313.91204477 65.74095539 309.87127101 60.25 305.8125 C53.73140208 300.99594759 47.17551521 296.23976924 40.5703125 291.54296875 C29.33484157 283.55154225 18.19855572 275.42577605 7.10888672 267.23364258 C-1.2143588 261.09126792 -9.60399195 255.04233081 -18 249 C-28.00550398 241.79936792 -37.97688478 234.55749214 -47.89208984 227.23291016 C-55.4766884 221.63567826 -63.1158833 216.11591373 -70.76611328 210.60888672 C-75.26523169 207.36853805 -79.75824119 204.11972298 -84.25244141 200.87255859 C-87.987945 198.17401978 -91.7248148 195.47742047 -95.46484375 192.78515625 C-103.97920681 186.65243321 -112.45216202 180.46767211 -120.89208984 174.23291016 C-129.21502749 168.09080366 -137.60432215 162.04209317 -146 156 C-156.00550398 148.79936792 -165.97688478 141.55749214 -175.89208984 134.23291016 C-183.4766884 128.63567826 -191.1158833 123.11591373 -198.76611328 117.60888672 C-203.26523169 114.36853805 -207.75824119 111.11972298 -212.25244141 107.87255859 C-215.987945 105.17401978 -219.7248148 102.47742047 -223.46484375 99.78515625 C-232.08843541 93.57338268 -240.6683755 87.30791678 -249.20410156 80.97583008 C-254.97352619 76.71149897 -260.84376327 72.63401985 -266.82421875 68.671875 C-267.54222656 68.12015625 -268.26023437 67.5684375 -269 67 C-269 66.34 -269 65.68 -269 65 C-268.09499599 65.00775137 -267.18999197 65.01550274 -266.25756359 65.023489 C-244.16114126 65.20787661 -222.0655303 65.31383644 -199.96832561 65.33421898 C-189.28177584 65.34593616 -178.59651956 65.38347397 -167.91040039 65.48339844 C-158.58815485 65.57050224 -149.26723087 65.60752906 -139.94458038 65.58627188 C-135.01492121 65.57673153 -130.08810729 65.59100587 -125.15894127 65.66541672 C-99.00757892 66.87535202 -99.00757892 66.87535202 -76.46029949 55.47627831 C-75.2380873 54.27521061 -74.03402207 53.05533758 -72.85076332 51.81587601 C-69.55281311 48.58009292 -65.72537791 46.06186861 -61.9375 43.4375 C-60.44341318 42.36461922 -58.950988 41.28941703 -57.4609375 40.2109375 C-55.23096711 38.605554 -53.00073764 37.00053086 -50.77050781 35.39550781 C-42.22946089 29.2467016 -33.71456431 23.06629731 -25.25 16.8125 C-19.49265166 12.56482233 -13.73509501 8.31765846 -7.9375 4.125 C-7.0707666 3.4904187 -7.0707666 3.4904187 -6.18652344 2.84301758 C-2.23133625 0 -2.23133625 0 0 0 Z " fill="#DC2A34" transform="translate(700,620)"/>
<path d="M0 0 C2 1 2 1 2.77822876 2.75791931 C3.02753143 3.52866287 3.27683411 4.29940643 3.53369141 5.09350586 C3.82291473 5.97519943 4.11213806 6.85689301 4.41012573 7.76530457 C4.87613693 9.22532646 4.87613693 9.22532646 5.3515625 10.71484375 C5.68213654 11.73036819 6.01271057 12.74589264 6.353302 13.79219055 C7.4511975 17.17163272 8.53810153 20.55450643 9.625 23.9375 C10.39557233 26.31692179 11.16673957 28.69615101 11.93847656 31.07519531 C17.24142389 47.44600527 22.48040708 63.83762602 27.70025635 80.23510742 C31.9549903 93.60040705 36.28140551 106.94050166 40.671875 120.26171875 C41.16022258 121.74437285 41.64856488 123.22702869 42.13690186 124.70968628 C44.30230051 131.28180022 46.47089331 137.85281686 48.64993668 144.42042065 C49.54754174 147.12845212 50.44166102 149.83762594 51.33499908 152.54706764 C51.9557142 154.42539649 52.58117001 156.30215661 53.20672607 158.17887878 C53.57614319 159.30054947 53.9455603 160.42222015 54.32617188 161.57788086 C54.65097534 162.55736191 54.97577881 163.53684296 55.3104248 164.54600525 C56 167 56 167 56 170 C56.53367187 170.24105469 57.06734375 170.48210937 57.6171875 170.73046875 C60.64076958 172.34139363 63.3589622 174.30413489 66.125 176.3125 C66.73190674 176.74981445 67.33881348 177.18712891 67.96411133 177.63769531 C69.28410516 178.58940771 70.60316081 179.54242238 71.92138672 180.49658203 C74.0293774 182.02124807 76.14120418 183.54046434 78.25390625 185.05859375 C86.0380632 190.65816471 93.7870219 196.30277922 101.5 202 C116.20011677 212.85570197 131.04733599 223.49528034 146 234 C144.17274026 238.08198299 141.63122344 239.98148348 138 242.4375 C136.72213401 243.32607235 135.44481658 244.21543397 134.16796875 245.10546875 C133.48911621 245.5751709 132.81026367 246.04487305 132.11083984 246.52880859 C128.48022544 249.05923681 124.89755387 251.65561497 121.3125 254.25 C120.18134766 255.06682251 120.18134766 255.06682251 119.02734375 255.90014648 C112.6914207 260.48209083 106.39799731 265.12048085 100.10888672 269.76635742 C91.04893979 276.45240175 81.90963888 283.02736019 72.77050781 289.60449219 C64.22947007 295.75329179 55.71408236 301.93305997 47.25 308.1875 C40.73131921 313.00394216 34.1755172 317.76022935 27.5703125 322.45703125 C16.33484157 330.44845775 5.19855572 338.57422395 -5.89111328 346.76635742 C-14.95106021 353.45240175 -24.09036112 360.02736019 -33.22949219 366.60449219 C-41.77052993 372.75329179 -50.28591764 378.93305997 -58.75 385.1875 C-65.26868079 390.00394216 -71.8244828 394.76022935 -78.4296875 399.45703125 C-88.85730136 406.87385519 -99.20711276 414.39753918 -109.5 422 C-115.96391263 426.77104681 -122.43735468 431.52839607 -128.9375 436.25 C-129.68902344 436.79914063 -130.44054687 437.34828125 -131.21484375 437.9140625 C-131.91609375 438.42195313 -132.61734375 438.92984375 -133.33984375 439.453125 C-133.95206787 439.89817383 -134.56429199 440.34322266 -135.19506836 440.80175781 C-137.06612853 442.04390083 -138.97282314 443.03768476 -141 444 C-140.3592036 437.50057532 -138.41481698 431.60000853 -136.37890625 425.4140625 C-136.00790298 424.27052307 -135.63689972 423.12698364 -135.25465393 421.9487915 C-134.24097981 418.82630301 -133.22252266 415.70542097 -132.20236969 412.58504486 C-130.45177075 407.22262105 -128.71627056 401.85527169 -126.97816467 396.4887886 C-126.52993963 395.10515261 -126.08150243 393.72158533 -125.63285828 392.33808517 C-121.05095898 378.20854907 -116.57723816 364.04590589 -112.125 349.875 C-105.46343559 328.69139147 -98.67487332 307.55136148 -91.82814407 286.42712021 C-85.49057697 266.87265361 -79.22609907 247.29769524 -73.0625 227.6875 C-66.25424718 206.02681936 -59.30187166 184.41603213 -52.29239655 162.81987762 C-45.75511547 142.67706766 -39.28765794 122.5152915 -32.9375 102.3125 C-26.24154178 81.0102752 -19.43351638 59.74627945 -12.5625 38.5 C-12.33142925 37.78530674 -12.10035851 37.07061348 -11.86228561 36.33426285 C-10.32738747 31.58702713 -8.79117519 26.84021849 -7.25390625 22.09375 C-6.86723785 20.89952927 -6.48056946 19.70530853 -6.08218384 18.47489929 C-4.08226696 12.30715207 -2.06077969 6.147687 0 0 Z " fill="#087E40" transform="translate(336,515)"/>
</svg>
