<?xml version="1.0" encoding="UTF-8"?>
<svg version="1.1" xmlns="http://www.w3.org/2000/svg" width="72" height="67">
<path d="M0 0 C4.66053387 2.7883536 8.9242195 6.89405176 11.6875 11.5625 C11.40234375 14.34765625 11.40234375 14.34765625 10.6875 16.5625 C10.25179687 16.16417969 9.81609375 15.76585938 9.3671875 15.35546875 C3.39937317 10.04643912 -1.44069569 6.85083568 -9.65625 7.16015625 C-16.23025759 8.15592505 -21.63781338 11.06360198 -25.6875 16.375 C-28.88966094 21.74200213 -30.06634196 27.64833913 -31.35546875 33.6953125 C-32.32729312 37.62227627 -33.62521709 40.9027596 -35.3125 44.5625 C-36.3025 44.5625 -37.2925 44.5625 -38.3125 44.5625 C-39.1465855 21.52570019 -39.1465855 21.52570019 -34.3125 12.5625 C-33.735 11.469375 -33.1575 10.37625 -32.5625 9.25 C-24.54819135 -0.32264645 -12.10631147 -5.26048058 0 0 Z " fill="#BE0721" transform="translate(60.3125,22.4375)"/>
<path d="M0 0 C4.97081354 2.71987911 7.67843972 6.39203513 9.7734375 11.6640625 C11.71734687 19.41152737 10.60467259 26.67945939 7.3125 33.8125 C6.6525 33.4825 5.9925 33.1525 5.3125 32.8125 C4.77058316 30.28454729 4.32991818 27.80128687 3.9375 25.25 C2.47605279 15.35710752 2.47605279 15.35710752 -3.2890625 7.5234375 C-6.84868964 5.34375392 -10.69801218 3.98015497 -14.6875 2.8125 C-14.6875 2.1525 -14.6875 1.4925 -14.6875 0.8125 C-9.86200807 -2.27581483 -5.27670026 -1.69927635 0 0 Z " fill="#CA0420" transform="translate(14.6875,4.1875)"/>
<path d="M0 0 C0 0.99 0 1.98 0 3 C2.475 3.99 2.475 3.99 5 5 C4.41018767 11.25201072 4.41018767 11.25201072 2.9375 13.9375 C-0.27905997 15.70141999 -3.49385409 15.73924763 -7 15 C-9.5625 12.9375 -9.5625 12.9375 -11 10 C-10.93977486 6.50694211 -10.63658168 4.09633511 -8.875 1.0625 C-5.96905769 -0.58420065 -3.26178195 -0.18462917 0 0 Z " fill="#5FB10F" transform="translate(42,0)"/>
<path d="M0 0 C14.90095227 -0.81773519 14.90095227 -0.81773519 21 4 C24.0235541 6.75616497 26.90835646 9.46625465 29 13 C28.71484375 15.78515625 28.71484375 15.78515625 28 18 C27.56429687 17.60167969 27.12859375 17.20335938 26.6796875 16.79296875 C22.99005314 13.51063169 19.56922802 11.00600254 15 9 C15.99 7.35 16.98 5.7 18 4 C11.99945246 2.33318124 6.2054142 1.48320848 0 1 C0 0.67 0 0.34 0 0 Z " fill="#B80B21" transform="translate(43,21)"/>
<path d="M0 0 C0.66 0.33 1.32 0.66 2 1 C4.3556435 8.0669305 3.10404625 13.78865606 -0.125 20.34765625 C-0.41375 20.89292969 -0.7025 21.43820313 -1 22 C-1.66 22 -2.32 22 -3 22 C-3.08685287 18.70849875 -3.14033895 15.4172904 -3.1875 12.125 C-3.21263672 11.18785156 -3.23777344 10.25070313 -3.26367188 9.28515625 C-3.27333984 8.38925781 -3.28300781 7.49335937 -3.29296875 6.5703125 C-3.3086792 5.74289551 -3.32438965 4.91547852 -3.34057617 4.06298828 C-3.22818604 3.38220215 -3.1157959 2.70141602 -3 2 C-2.01 1.34 -1.02 0.68 0 0 Z " fill="#D2021E" transform="translate(26,45)"/>
<path d="M0 0 C3.125 1.625 3.125 1.625 4.125 3.625 C1.815 2.965 -0.495 2.305 -2.875 1.625 C-2.545 3.275 -2.215 4.925 -1.875 6.625 C-1.215 6.625 -0.555 6.625 0.125 6.625 C0.125 7.285 0.125 7.945 0.125 8.625 C1.115 8.955 2.105 9.285 3.125 9.625 C2.465 9.625 1.805 9.625 1.125 9.625 C0.795 10.285 0.465 10.945 0.125 11.625 C-0.49375 10.8825 -1.1125 10.14 -1.75 9.375 C-5.37279756 5.68919726 -10.08503921 4.28986016 -14.875 2.625 C-14.875 1.965 -14.875 1.305 -14.875 0.625 C-10.09427662 -2.43466296 -5.1108941 -2.06744587 0 0 Z " fill="#BD0622" transform="translate(14.875,4.375)"/>
<path d="M0 0 C0.99 0.33 1.98 0.66 3 1 C2.01 2.485 2.01 2.485 1 4 C1.66 4.66 2.32 5.32 3 6 C2.67 6.99 2.34 7.98 2 9 C1.01 9 0.02 9 -1 9 C-1.33 8.01 -1.66 7.02 -2 6 C-2 7.65 -2 9.3 -2 11 C-1.34 11 -0.68 11 0 11 C0 11.66 0 12.32 0 13 C2.64 13 5.28 13 8 13 C8.33 10.03 8.66 7.06 9 4 C9.99 4.33 10.98 4.66 12 5 C11.41018767 11.25201072 11.41018767 11.25201072 9.9375 13.9375 C6.72094003 15.70141999 3.50614591 15.73924763 0 15 C-2.5625 12.9375 -2.5625 12.9375 -4 10 C-3.93611417 6.29462195 -3.79259706 3.98282035 -1.4375 1.0625 C-0.7259375 0.5365625 -0.7259375 0.5365625 0 0 Z " fill="#70A937" transform="translate(35,0)"/>
<path d="M0 0 C3.27586158 2.65188795 4.96129404 5.98649672 6 10 C6.75890735 17.36646065 6.09868278 23.28618731 3 30 C2.34 29.67 1.68 29.34 1 29 C0.5859375 26.05859375 0.5859375 26.05859375 0.375 22.4375 C0.30023437 21.23996094 0.22546875 20.04242187 0.1484375 18.80859375 C0.09945313 17.88175781 0.05046875 16.95492188 0 16 C2 19 2 19 3 23 C3.33 18.05 3.66 13.1 4 8 C3.34 8 2.68 8 2 8 C1.34 5.36 0.68 2.72 0 0 Z " fill="#A40E1C" transform="translate(19,8)"/>
<path d="M0 0 C0.99 0.33 1.98 0.66 3 1 C3.33 2.65 3.66 4.3 4 6 C3.34 6 2.68 6 2 6 C2 6.66 2 7.32 2 8 C-0.76276177 7.47731534 -3.3260876 6.89130413 -6 6 C-5.34 4.68 -4.68 3.36 -4 2 C-2.68 2 -1.36 2 0 2 C0 1.34 0 0.68 0 0 Z " fill="#D10222" transform="translate(38,25)"/>
<path d="M0 0 C3.125 1.625 3.125 1.625 4.125 3.625 C3.41988281 3.30789062 2.71476562 2.99078125 1.98828125 2.6640625 C-1.00005879 1.57961714 -3.52569658 1.2285641 -6.6875 1 C-7.66332031 0.92523438 -8.63914062 0.85046875 -9.64453125 0.7734375 C-10.38058594 0.72445313 -11.11664063 0.67546875 -11.875 0.625 C-11.875 1.285 -11.875 1.945 -11.875 2.625 C-10.225 2.625 -8.575 2.625 -6.875 2.625 C-6.875 3.285 -6.875 3.945 -6.875 4.625 C-9.185 4.295 -11.495 3.965 -13.875 3.625 C-14.205 2.635 -14.535 1.645 -14.875 0.625 C-10.09427662 -2.43466296 -5.1108941 -2.06744587 0 0 Z " fill="#8D0F1C" transform="translate(14.875,4.375)"/>
<path d="M0 0 C0.59720137 5.82271337 -1.471757 9.9209404 -4 15 C-5.233092 11.30072399 -5.4492913 7.84996167 -5 4 C-2.8 0 -2.8 0 0 0 Z " fill="#B80B20" transform="translate(29,52)"/>
<path d="M0 0 C0.66 0 1.32 0 2 0 C2 0.99 2 1.98 2 3 C2.66 3 3.32 3 4 3 C4.33 5.31 4.66 7.62 5 10 C3.68 10.33 2.36 10.66 1 11 C0.63743142 9.5437328 0.28520207 8.08488815 -0.0625 6.625 C-0.35833984 5.40683594 -0.35833984 5.40683594 -0.66015625 4.1640625 C-1 2 -1 2 0 0 Z " fill="#69B41E" transform="translate(40,0)"/>
<path d="M0 0 C0.33 0.66 0.66 1.32 1 2 C3.02463255 2.65213292 3.02463255 2.65213292 5 3 C5.33 4.32 5.66 5.64 6 7 C5.360625 7.103125 4.72125 7.20625 4.0625 7.3125 C3.381875 7.539375 2.70125 7.76625 2 8 C1.67 8.99 1.34 9.98 1 11 C-2 5.25 -2 5.25 -2 3 C-1.34 3 -0.68 3 0 3 C0 2.01 0 1.02 0 0 Z " fill="#D10221" transform="translate(29,32)"/>
<path d="M0 0 C0.99 0.33 1.98 0.66 3 1 C2.01 2.485 2.01 2.485 1 4 C1.66 4.66 2.32 5.32 3 6 C2.67 6.99 2.34 7.98 2 9 C1.01 9 0.02 9 -1 9 C-1.33 8.01 -1.66 7.02 -2 6 C-2.33 6.99 -2.66 7.98 -3 9 C-3.36923077 3.46153846 -3.36923077 3.46153846 -1.5 1.125 C-1.005 0.75375 -0.51 0.3825 0 0 Z " fill="#6BB427" transform="translate(35,0)"/>
<path d="M0 0 C0 0.99 0 1.98 0 3 C-1.11375 3.433125 -1.11375 3.433125 -2.25 3.875 C-4.56739797 4.82302644 -6.77917115 5.84845911 -9 7 C-3.65789474 0 -3.65789474 0 0 0 Z " fill="#A90C1E" transform="translate(38,24)"/>
</svg>
