<?xml version="1.0" encoding="UTF-8"?>
<svg id="Layer_1" data-name="Layer 1" xmlns="http://www.w3.org/2000/svg" xmlns:xlink="http://www.w3.org/1999/xlink" viewBox="0 0 278.79 232.65">
  <defs>
    <style>
      .cls-1 {
        fill: url(#linear-gradient);
      }

      .cls-1, .cls-2, .cls-3, .cls-4, .cls-5, .cls-6, .cls-7, .cls-8, .cls-9, .cls-10 {
        stroke-width: 0px;
      }

      .cls-2 {
        fill: url(#linear-gradient-6);
      }

      .cls-3 {
        fill: url(#linear-gradient-5);
      }

      .cls-4 {
        fill: url(#linear-gradient-2);
      }

      .cls-5 {
        fill: url(#linear-gradient-7);
      }

      .cls-6 {
        fill: url(#linear-gradient-3);
      }

      .cls-7 {
        fill: url(#linear-gradient-9);
      }

      .cls-8 {
        fill: url(#linear-gradient-8);
      }

      .cls-9 {
        fill: url(#linear-gradient-10);
      }

      .cls-10 {
        fill: url(#linear-gradient-4);
      }
    </style>
    <linearGradient id="linear-gradient" x1="33.92" y1="158.54" x2="114.49" y2="158.54" gradientUnits="userSpaceOnUse">
      <stop offset="0" stop-color="#5ef"/>
      <stop offset=".2" stop-color="#54eaff"/>
      <stop offset=".38" stop-color="#52deff"/>
      <stop offset=".56" stop-color="#4ecbff"/>
      <stop offset=".74" stop-color="#49b0ff"/>
      <stop offset=".92" stop-color="#428eff"/>
      <stop offset="1" stop-color="#3f7cff"/>
    </linearGradient>
    <linearGradient id="linear-gradient-2" x1="-3.8" y1="223.34" x2="59.47" y2="99.18" gradientUnits="userSpaceOnUse">
      <stop offset="0" stop-color="#ce026a"/>
      <stop offset="1" stop-color="#f68000"/>
    </linearGradient>
    <linearGradient id="linear-gradient-3" x1="254.64" y1="112.44" x2="277.29" y2="112.44" xlink:href="#linear-gradient"/>
    <linearGradient id="linear-gradient-4" x1="162.86" y1="211.61" x2="185.53" y2="211.61" xlink:href="#linear-gradient"/>
    <linearGradient id="linear-gradient-5" x1="190.75" y1="221.2" x2="247.59" y2="109.64" xlink:href="#linear-gradient-2"/>
    <linearGradient id="linear-gradient-6" x1="238.51" y1="113.13" x2="271.25" y2="113.13" gradientTransform="translate(439.01 154.4) rotate(-180)" gradientUnits="userSpaceOnUse">
      <stop offset="0" stop-color="#f3006c"/>
      <stop offset=".15" stop-color="#f30666"/>
      <stop offset=".34" stop-color="#f51758"/>
      <stop offset=".56" stop-color="#f73340"/>
      <stop offset=".8" stop-color="#fb5a1f"/>
      <stop offset="1" stop-color="#ff8100"/>
    </linearGradient>
    <linearGradient id="linear-gradient-7" x1="245.21" y1="96.34" x2="291.01" y2="96.34" gradientTransform="translate(439.01 154.4) rotate(-180)" gradientUnits="userSpaceOnUse">
      <stop offset="0" stop-color="#ff8100"/>
      <stop offset=".2" stop-color="#fb5a1f"/>
      <stop offset=".44" stop-color="#f73340"/>
      <stop offset=".66" stop-color="#f51758"/>
      <stop offset=".85" stop-color="#f30666"/>
      <stop offset=".99" stop-color="#f3006c"/>
    </linearGradient>
    <linearGradient id="linear-gradient-8" x1="215.42" y1="113.13" x2="248.16" y2="113.13" gradientTransform="translate(-137.13 154.4) scale(1 -1)" gradientUnits="userSpaceOnUse">
      <stop offset="0" stop-color="#f3006c"/>
      <stop offset=".15" stop-color="#f30666"/>
      <stop offset=".34" stop-color="#f51758"/>
      <stop offset=".56" stop-color="#f73340"/>
      <stop offset=".8" stop-color="#fb5a1f"/>
      <stop offset="1" stop-color="#ff8100"/>
    </linearGradient>
    <linearGradient id="linear-gradient-9" x1="222.12" x2="267.92" gradientTransform="translate(-137.13 154.4) scale(1 -1)" xlink:href="#linear-gradient-7"/>
    <linearGradient id="linear-gradient-10" x1="120.12" y1="42.03" x2="158.68" y2="42.03" xlink:href="#linear-gradient"/>
  </defs>
  <g>
    <g>
      <path class="cls-1" d="m114.49,188.98v.29c0,7.29-1.93,13.74-5.78,19.32-3.86,5.56-9.37,9.86-16.55,12.89-7.18,3.05-15.56,4.57-25.11,4.57h-13.03l16.3-8.41-17.75-9.15h6.03c11.48,0,19.86-1.82,25.11-5.47,5.25-3.65,7.89-8.79,7.89-15.42v-.27c0-4.59-.94-8.52-2.83-11.81-1.9-3.27-4.87-5.79-8.94-7.56-4.08-1.77-9.3-2.64-15.67-2.64h-30.24v-17.1h30.24c8.36,0,14.68-1.64,18.94-4.91,4.26-3.29,6.39-8.14,6.39-14.59s-2.36-11.79-7.11-15.13c-4.75-3.36-11.84-5.02-21.32-5.02h-7.04l16.3-8.41-17.75-9.13h12.58c10.45,0,19.19,1.48,26.23,4.46,7.02,2.96,12.29,7.17,15.78,12.62,3.47,5.45,5.22,11.95,5.22,19.5,0,4.64-1.08,8.99-3.23,13.05-2.15,4.06-5.42,7.53-9.82,10.4-4.4,2.89-9.87,4.82-16.39,5.81,6.52.79,12.15,2.73,16.88,5.79,4.75,3.07,8.38,6.9,10.9,11.46,2.51,4.59,3.77,9.53,3.77,14.86Z"/>
      <polygon class="cls-4" points="43.47 208.48 61.24 217.63 44.92 226.04 1.5 226.04 1.5 91.03 43.47 91.03 61.24 100.16 44.92 108.57 24.05 108.57 24.05 208.48 43.47 208.48"/>
    </g>
    <g>
      <polygon class="cls-6" points="277.29 96.13 277.29 128.74 265.49 108.28 254.64 127.08 254.64 96.13 277.29 96.13"/>
      <polygon class="cls-10" points="185.53 192.07 185.53 231.15 162.86 231.15 162.86 193.73 173.71 212.52 185.53 192.07"/>
      <polygon class="cls-3" points="277.29 139.21 277.29 231.15 254.64 231.15 254.64 173.67 185.53 173.67 185.53 192.07 173.71 212.52 185.51 192.07 185.51 181.6 173.71 202.05 162.86 183.26 162.86 96.13 185.53 96.13 185.53 155.65 254.64 155.65 254.64 137.55 265.49 118.75 277.29 139.21"/>
    </g>
  </g>
  <g>
    <g>
      <path class="cls-2" d="m178.88,24.93c-2.54-2.87-6.67-2.87-9.21,0h0c-2.54,2.87-2.54,7.53,0,10.41l19.72,22.28c2.54,2.87,6.67,2.87,9.21,0h0c2.54-2.87,2.54-7.53,0-10.41l-11.66-13.15-8.05-9.13Z"/>
      <path class="cls-5" d="m169.67,79.92c2.54,2.87,6.66,2.87,9.21,0l19.72-22.28c2.49-2.81,2.65-7.22.26-10.1l-.1-.12-.13-.15s-.02-.02-.03-.03c0-.01-.02-.02-.03-.03l-11.63-13.13c6.26,7.08-2.14,18.36-2.14,18.36h0s-15.12,17.09-15.12,17.09c-2.54,2.87-2.54,7.53,0,10.41Z"/>
    </g>
    <g>
      <path class="cls-8" d="m99.92,24.93c2.54-2.87,6.67-2.87,9.21,0h0c2.54,2.87,2.54,7.53,0,10.41l-19.72,22.28c-2.54,2.87-6.67,2.87-9.21,0h0c-2.54-2.87-2.54-7.53,0-10.41l11.66-13.15,8.05-9.13Z"/>
      <path class="cls-7" d="m109.13,79.92c-2.54,2.87-6.66,2.87-9.21,0l-19.72-22.28c-2.49-2.81-2.65-7.22-.26-10.1l.1-.12.13-.15s.02-.02.03-.03c0-.01.02-.02.03-.03l11.63-13.13c-6.26,7.08,2.14,18.36,2.14,18.36h0s15.12,17.09,15.12,17.09c2.54,2.87,2.54,7.53,0,10.41Z"/>
    </g>
    <path class="cls-9" d="m151.1,2.26h0c-.37-.17-.57-.26-.57-.26l-29.2,62.63c-3.01,6.45-.22,14.12,6.23,17.12h0s0,0,0,0c.46.22.71.33.71.33l29.2-62.63c3.01-6.45.21-14.12-6.24-17.13-.04-.02-.09-.04-.13-.06Z"/>
  </g>
</svg>